<svg width="24" height="30" viewBox="0 0 24 30" fill="none" xmlns="http://www.w3.org/2000/svg">
<g filter="url(#filter0_d_352_12057)">
<path d="M12 22C13.1 22 14 21.1 14 20H9.99999C9.99999 21.1 10.89 22 12 22ZM18 16V11C18 7.93 16.36 5.36 13.5 4.68V4C13.5 3.17 12.83 2.5 12 2.5C11.17 2.5 10.5 3.17 10.5 4V4.68C7.62999 5.36 5.99999 7.92 5.99999 11V16L4.70999 17.29C4.07999 17.92 4.51999 19 5.40999 19H18.58C19.47 19 19.92 17.92 19.29 17.29L18 16Z" fill="#7A7C85"/>
</g>
<defs>
<filter id="filter0_d_352_12057" x="-4" y="0" width="32" height="32" filterUnits="userSpaceOnUse" color-interpolation-filters="sRGB">
<feFlood flood-opacity="0" result="BackgroundImageFix"/>
<feColorMatrix in="SourceAlpha" type="matrix" values="0 0 0 0 0 0 0 0 0 0 0 0 0 0 0 0 0 0 127 0" result="hardAlpha"/>
<feOffset dy="4"/>
<feGaussianBlur stdDeviation="2"/>
<feComposite in2="hardAlpha" operator="out"/>
<feColorMatrix type="matrix" values="0 0 0 0 0 0 0 0 0 0 0 0 0 0 0 0 0 0 0.25 0"/>
<feBlend mode="normal" in2="BackgroundImageFix" result="effect1_dropShadow_352_12057"/>
<feBlend mode="normal" in="SourceGraphic" in2="effect1_dropShadow_352_12057" result="shape"/>
</filter>
</defs>
</svg>
