<svg width="18" height="18" viewBox="0 0 18 18" fill="none" xmlns="http://www.w3.org/2000/svg">
<path d="M17.9025 9.00703C17.9025 8.45549 17.457 8.01001 16.9055 8.01001L9.99702 8.00294L9.99702 1.08744C9.99702 0.535893 9.55154 0.0904153 9 0.0904153C8.44846 0.0904153 8.00298 0.535893 8.00298 1.08744L8.00298 8.00294L1.08748 8.00294C0.535932 8.00294 0.0904543 8.44842 0.0904541 8.99996C0.0904546 9.5515 0.535932 9.99698 1.08748 9.99698L8.00298 9.99698L8.00298 16.9125C8.00298 17.464 8.44846 17.9095 9 17.9095C9.55154 17.9095 9.99702 17.464 9.99702 16.9125L9.99702 9.99698L16.9125 9.99698C17.4499 9.99698 17.9025 9.54443 17.9025 9.00703Z" fill="white"/>
</svg>
