<svg width="14" height="14" viewBox="0 0 14 14" fill="none" xmlns="http://www.w3.org/2000/svg">
<path d="M13.29 13.3C13.68 12.91 13.68 12.28 13.29 11.89L8.41003 6.99997L13.3 2.10997C13.69 1.71997 13.69 1.08997 13.3 0.699971C12.91 0.309971 12.28 0.309971 11.89 0.699971L7.00003 5.58997L2.11003 0.69997C1.72003 0.30997 1.09003 0.30997 0.700028 0.69997C0.310029 1.08997 0.310029 1.71997 0.700028 2.10997L5.59003 6.99997L0.700028 11.89C0.310029 12.28 0.310028 12.91 0.700028 13.3C1.09003 13.69 1.72003 13.69 2.11003 13.3L7.00003 8.40997L11.89 13.3C12.27 13.68 12.91 13.68 13.29 13.3Z" fill="white"/>
</svg>
