<svg width="24" height="24" viewBox="0 0 24 24" fill="none" xmlns="http://www.w3.org/2000/svg">
<path d="M20.9025 12.007C20.9025 11.4555 20.457 11.01 19.9055 11.01L12.997 11.0029L12.997 4.08744C12.997 3.53589 12.5515 3.09042 12 3.09042C11.4485 3.09042 11.003 3.53589 11.003 4.08744L11.003 11.0029L4.08748 11.0029C3.53593 11.0029 3.09045 11.4484 3.09045 12C3.09045 12.5515 3.53593 12.997 4.08748 12.997L11.003 12.997L11.003 19.9125C11.003 20.464 11.4485 20.9095 12 20.9095C12.5515 20.9095 12.997 20.464 12.997 19.9125L12.997 12.997L19.9125 12.997C20.4499 12.997 20.9025 12.5444 20.9025 12.007Z" fill="#7A7C85"/>
</svg>
